TITLE ""
FILE "P1Q_t_1330-1338.mp3" MP3
  TRACK 01 AUDIO
    TITLE "P1Q_t_1330-1338_01"
    INDEX 01 00:00:00
  TRACK 02 AUDIO
    TITLE "P1Q_t_1330-1338_02"
    INDEX 01 00:00:08
  TRACK 03 AUDIO
    TITLE "P1Q_t_1330-1338_03"
    INDEX 01 00:01:10
  TRACK 04 AUDIO
    TITLE "P1Q_t_1330-1338_04"
    INDEX 01 00:01:37
  TRACK 05 AUDIO
    TITLE "P1Q_t_1330-1338_05"
    INDEX 01 00:06:68
  TRACK 06 AUDIO
    TITLE "P1Q_t_1330-1338_06"
    INDEX 01 00:07:16
  TRACK 07 AUDIO
    TITLE "P1Q_t_1330-1338_07"
    INDEX 01 00:11:20
  TRACK 08 AUDIO
    TITLE "P1Q_t_1330-1338_08"
    INDEX 01 00:11:63
  TRACK 09 AUDIO
    TITLE "P1Q_t_1330-1338_09"
    INDEX 01 00:13:05
  TRACK 10 AUDIO
    TITLE "P1Q_t_1330-1338_10"
    INDEX 01 00:13:25
  TRACK 11 AUDIO
    TITLE "P1Q_t_1330-1338_11"
    INDEX 01 00:17:26
  TRACK 12 AUDIO
    TITLE "P1Q_t_1330-1338_12"
    INDEX 01 00:17:46
  TRACK 13 AUDIO
    TITLE "P1Q_t_1330-1338_13"
    INDEX 01 00:22:22
  TRACK 14 AUDIO
    TITLE "P1Q_t_1330-1338_14"
    INDEX 01 00:22:67
  TRACK 15 AUDIO
    TITLE "P1Q_t_1330-1338_15"
    INDEX 01 00:24:09
  TRACK 16 AUDIO
    TITLE "P1Q_t_1330-1338_16"
    INDEX 01 00:24:32
  TRACK 17 AUDIO
    TITLE "P1Q_t_1330-1338_17"
    INDEX 01 00:26:37
  TRACK 18 AUDIO
    TITLE "P1Q_t_1330-1338_18"
    INDEX 01 00:26:59
  TRACK 19 AUDIO
    TITLE "P1Q_t_1330-1338_19"
    INDEX 01 00:30:54
  TRACK 20 AUDIO
    TITLE "P1Q_t_1330-1338_20"
    INDEX 01 00:31:25
  TRACK 21 AUDIO
    TITLE "P1Q_t_1330-1338_21"
    INDEX 01 00:32:48
  TRACK 22 AUDIO
    TITLE "P1Q_t_1330-1338_22"
    INDEX 01 00:32:67
  TRACK 23 AUDIO
    TITLE "P1Q_t_1330-1338_23"
    INDEX 01 00:34:43
  TRACK 24 AUDIO
    TITLE "P1Q_t_1330-1338_24"
    INDEX 01 00:34:60
  TRACK 25 AUDIO
    TITLE "P1Q_t_1330-1338_25"
    INDEX 01 00:39:24
  TRACK 26 AUDIO
    TITLE "P1Q_t_1330-1338_26"
    INDEX 01 00:39:69
  TRACK 27 AUDIO
    TITLE "P1Q_t_1330-1338_27"
    INDEX 01 00:41:17
  TRACK 28 AUDIO
    TITLE "P1Q_t_1330-1338_28"
    INDEX 01 00:41:41
  TRACK 29 AUDIO
    TITLE "P1Q_t_1330-1338_29"
    INDEX 01 00:46:12
  TRACK 30 AUDIO
    TITLE "P1Q_t_1330-1338_30"
    INDEX 01 00:46:32
  TRACK 31 AUDIO
    TITLE "P1Q_t_1330-1338_31"
    INDEX 01 00:51:06
  TRACK 32 AUDIO
    TITLE "P1Q_t_1330-1338_32"
    INDEX 01 00:51:53
  TRACK 33 AUDIO
    TITLE "P1Q_t_1330-1338_33"
    INDEX 01 00:52:60
  TRACK 34 AUDIO
    TITLE "P1Q_t_1330-1338_34"
    INDEX 01 00:53:30
  TRACK 35 AUDIO
    TITLE "P1Q_t_1330-1338_35"
    INDEX 01 00:54:33
  TRACK 36 AUDIO
    TITLE "P1Q_t_1330-1338_36"
    INDEX 01 00:54:55
  TRACK 37 AUDIO
    TITLE "P1Q_t_1330-1338_37"
    INDEX 01 00:57:08
  TRACK 38 AUDIO
    TITLE "P1Q_t_1330-1338_38"
    INDEX 01 00:57:28
  TRACK 39 AUDIO
    TITLE "P1Q_t_1330-1338_39"
    INDEX 01 01:00:63
  TRACK 40 AUDIO
    TITLE "P1Q_t_1330-1338_40"
    INDEX 01 01:01:33
  TRACK 41 AUDIO
    TITLE "P1Q_t_1330-1338_41"
    INDEX 01 01:02:33
  TRACK 42 AUDIO
    TITLE "P1Q_t_1330-1338_42"
    INDEX 01 01:02:51
  TRACK 43 AUDIO
    TITLE "P1Q_t_1330-1338_43"
    INDEX 01 01:07:05
  TRACK 44 AUDIO
    TITLE "P1Q_t_1330-1338_44"
    INDEX 01 01:07:22
  TRACK 45 AUDIO
    TITLE "P1Q_t_1330-1338_45"
    INDEX 01 01:11:48
  TRACK 46 AUDIO
    TITLE "P1Q_t_1330-1338_46"
    INDEX 01 01:12:18
  TRACK 47 AUDIO
    TITLE "P1Q_t_1330-1338_47"
    INDEX 01 01:13:35
  TRACK 48 AUDIO
    TITLE "P1Q_t_1330-1338_48"
    INDEX 01 01:13:56
  TRACK 49 AUDIO
    TITLE "P1Q_t_1330-1338_49"
    INDEX 01 01:16:23
  TRACK 50 AUDIO
    TITLE "P1Q_t_1330-1338_50"
    INDEX 01 01:16:43
  TRACK 51 AUDIO
    TITLE "P1Q_t_1330-1338_51"
    INDEX 01 01:20:58
  TRACK 52 AUDIO
    TITLE "P1Q_t_1330-1338_52"
    INDEX 01 01:21:30
  TRACK 53 AUDIO
    TITLE "P1Q_t_1330-1338_53"
    INDEX 01 01:22:40
  TRACK 54 AUDIO
    TITLE "P1Q_t_1330-1338_54"
    INDEX 01 01:22:59
  TRACK 55 AUDIO
    TITLE "P1Q_t_1330-1338_55"
    INDEX 01 01:26:59
  TRACK 56 AUDIO
    TITLE "P1Q_t_1330-1338_56"
    INDEX 01 01:27:04
  TRACK 57 AUDIO
    TITLE "P1Q_t_1330-1338_57"
    INDEX 01 01:32:48
